<svg width="41" height="40" viewBox="0 0 41 40" fill="none" xmlns="http://www.w3.org/2000/svg">
<path d="M25.922 19.8218H22.6821C22.6821 24.9982 22.6821 31.3698 22.6821 31.3698H17.8811C17.8811 31.3698 17.8811 25.06 17.8811 19.8218H15.5989V15.7404H17.8811V13.1005C17.8811 11.2098 18.7795 8.25537 22.7262 8.25537L26.2838 8.26901V12.2309C26.2838 12.2309 24.122 12.2309 23.7016 12.2309C23.2813 12.2309 22.6837 12.4411 22.6837 13.3427V15.7412H26.3416L25.922 19.8218Z" fill="#3B3D3D"/>
<mask id="mask0_703_2187" style="mask-type:luminance" maskUnits="userSpaceOnUse" x="15" y="8" width="12" height="24">
<path d="M25.922 19.8218H22.6821C22.6821 24.9982 22.6821 31.3698 22.6821 31.3698H17.8811C17.8811 31.3698 17.8811 25.06 17.8811 19.8218H15.5989V15.7404H17.8811V13.1005C17.8811 11.2098 18.7795 8.25537 22.7262 8.25537L26.2838 8.26901V12.2309C26.2838 12.2309 24.122 12.2309 23.7016 12.2309C23.2813 12.2309 22.6837 12.4411 22.6837 13.3427V15.7412H26.3416L25.922 19.8218Z" fill="white"/>
</mask>
<g mask="url(#mask0_703_2187)">
<rect x="0.739502" width="39.625" height="39.6248" fill="#424B5A"/>
</g>
</svg>
