<svg width="41" height="40" viewBox="0 0 41 40" fill="none" xmlns="http://www.w3.org/2000/svg">
<path fill-rule="evenodd" clip-rule="evenodd" d="M31.8481 26.9023V17.4401V12.7221C31.8481 10.2583 29.8444 8.25537 27.3806 8.25537H13.2011C10.7373 8.25537 8.73438 10.2583 8.73438 12.7221V17.4401V26.9023C8.73438 29.3669 10.7373 31.3698 13.2011 31.3698H27.3814C29.8444 31.3698 31.8481 29.3669 31.8481 26.9023ZM24.3602 19.8114C24.3602 22.055 22.5324 23.8795 20.2904 23.8795C18.0477 23.8795 16.2215 22.0541 16.224 19.8105C16.2248 18.9249 16.5121 18.1072 16.9934 17.4393C17.7342 16.4145 18.9349 15.7433 20.2929 15.7433C21.65 15.7433 22.8516 16.4153 23.5908 17.4401C24.0704 18.108 24.3602 18.9257 24.3602 19.8114ZM29.174 14.8347V11.4247V10.9172L28.664 10.9189L25.2557 10.9295L25.2688 14.8478L29.174 14.8347ZM20.2913 26.1329C23.7774 26.1329 26.6128 23.2958 26.6128 19.8114C26.6128 18.9732 26.4434 18.1719 26.143 17.4401H29.5947V26.9023C29.5947 28.1252 28.6002 29.1156 27.3798 29.1156H13.2003C11.9782 29.1156 10.9853 28.1252 10.9853 26.9023V17.4401H14.4355C14.1375 18.1719 13.9705 18.9732 13.9705 19.8114C13.9705 23.2958 16.8051 26.1329 20.2913 26.1329Z" fill="black"/>
<mask id="mask0_703_2174" style="mask-type:luminance" maskUnits="userSpaceOnUse" x="8" y="8" width="24" height="24">
<path fill-rule="evenodd" clip-rule="evenodd" d="M31.8481 26.9023V17.4401V12.7221C31.8481 10.2583 29.8444 8.25537 27.3806 8.25537H13.2011C10.7373 8.25537 8.73438 10.2583 8.73438 12.7221V17.4401V26.9023C8.73438 29.3669 10.7373 31.3698 13.2011 31.3698H27.3814C29.8444 31.3698 31.8481 29.3669 31.8481 26.9023ZM24.3602 19.8114C24.3602 22.055 22.5324 23.8795 20.2904 23.8795C18.0477 23.8795 16.2215 22.0541 16.224 19.8105C16.2248 18.9249 16.5121 18.1072 16.9934 17.4393C17.7342 16.4145 18.9349 15.7433 20.2929 15.7433C21.65 15.7433 22.8516 16.4153 23.5908 17.4401C24.0704 18.108 24.3602 18.9257 24.3602 19.8114ZM29.174 14.8347V11.4247V10.9172L28.664 10.9189L25.2557 10.9295L25.2688 14.8478L29.174 14.8347ZM20.2913 26.1329C23.7774 26.1329 26.6128 23.2958 26.6128 19.8114C26.6128 18.9732 26.4434 18.1719 26.143 17.4401H29.5947V26.9023C29.5947 28.1252 28.6002 29.1156 27.3798 29.1156H13.2003C11.9782 29.1156 10.9853 28.1252 10.9853 26.9023V17.4401H14.4355C14.1375 18.1719 13.9705 18.9732 13.9705 19.8114C13.9705 23.2958 16.8051 26.1329 20.2913 26.1329Z" fill="white"/>
</mask>
<g mask="url(#mask0_703_2174)">
<rect x="0.479126" width="39.625" height="39.6248" fill="#424B5A"/>
</g>
</svg>
