<svg width="50" height="50" viewBox="0 0 50 50" fill="none" xmlns="http://www.w3.org/2000/svg">
<path d="M39.995 0H9.581C4.298 0 0 4.297 0 9.58V19.7V39.995C0 45.278 4.298 49.575 9.581 49.575H39.996C45.279 49.575 49.576 45.278 49.576 39.995V19.699V9.579C49.575 4.296 45.278 0 39.995 0ZM42.743 5.713L43.839 5.709V6.8V14.112L35.464 14.139L35.435 5.737L42.743 5.713ZM17.712 19.699C19.3 17.502 21.876 16.061 24.788 16.061C27.7 16.061 30.276 17.502 31.862 19.699C32.895 21.133 33.514 22.887 33.514 24.787C33.514 29.598 29.596 33.512 24.787 33.512C19.975 33.512 16.061 29.598 16.061 24.787C16.062 22.887 16.679 21.133 17.712 19.699ZM44.745 39.994C44.745 42.615 42.614 44.744 39.995 44.744H9.581C6.961 44.744 4.83 42.615 4.83 39.994V19.699H12.23C11.591 21.271 11.232 22.988 11.232 24.787C11.232 32.26 17.312 38.344 24.788 38.344C32.263 38.344 38.343 32.26 38.343 24.787C38.343 22.988 37.982 21.271 37.343 19.699H44.745V39.994Z" fill="black"/>
</svg>
