<svg width="20" height="20" viewBox="0 0 20 20" fill="none" xmlns="http://www.w3.org/2000/svg">
<path fill-rule="evenodd" clip-rule="evenodd" d="M10.5878 3.92126C10.2632 3.59665 9.73689 3.59665 9.41228 3.92126C9.08787 4.24567 9.08764 4.77156 9.41175 5.09626L13.475 9.16683H4.16671C3.70647 9.16683 3.33337 9.53993 3.33337 10.0002C3.33337 10.4604 3.70647 10.8335 4.16671 10.8335H13.475L9.41175 14.9041C9.08764 15.2288 9.08787 15.7547 9.41228 16.0791C9.73689 16.4037 10.2632 16.4037 10.5878 16.0791L16.6667 10.0002L10.5878 3.92126Z" fill="black" fill-opacity="0.7"/>
<mask id="mask0_559_5873" style="mask-type:luminance" maskUnits="userSpaceOnUse" x="3" y="3" width="14" height="14">
<path fill-rule="evenodd" clip-rule="evenodd" d="M10.5878 3.92126C10.2632 3.59665 9.73689 3.59665 9.41228 3.92126C9.08787 4.24567 9.08764 4.77156 9.41175 5.09626L13.475 9.16683H4.16671C3.70647 9.16683 3.33337 9.53993 3.33337 10.0002C3.33337 10.4604 3.70647 10.8335 4.16671 10.8335H13.475L9.41175 14.9041C9.08764 15.2288 9.08787 15.7547 9.41228 16.0791C9.73689 16.4037 10.2632 16.4037 10.5878 16.0791L16.6667 10.0002L10.5878 3.92126Z" fill="white"/>
</mask>
<g mask="url(#mask0_559_5873)">
<rect width="20" height="20" fill="#424B5A"/>
</g>
</svg>
