<svg width="26" height="26" viewBox="0 0 26 26" fill="none" xmlns="http://www.w3.org/2000/svg">
<path d="M19.3095 0.142578C20.1657 0.142578 20.9722 0.306855 21.7288 0.63541C22.4855 0.963964 23.1476 1.41199 23.7151 1.9795C24.2826 2.547 24.7306 3.20909 25.0592 3.96576C25.3877 4.72243 25.552 5.52888 25.552 6.38511V18.8702C25.552 19.7264 25.3877 20.5378 25.0592 21.3045C24.7306 22.0711 24.2826 22.7382 23.7151 23.3057C23.1476 23.8732 22.4855 24.3212 21.7288 24.6497C20.9722 24.9783 20.1657 25.1426 19.3095 25.1426H6.79453C5.9383 25.1426 5.13185 24.9783 4.37518 24.6497C3.61851 24.3212 2.95642 23.8732 2.38892 23.3057C1.82142 22.7382 1.37339 22.0711 1.04483 21.3045C0.716279 20.5378 0.552002 19.7264 0.552002 18.8702V6.38511C0.552002 5.52888 0.716279 4.72243 1.04483 3.96576C1.37339 3.20909 1.82142 2.547 2.38892 1.9795C2.95642 1.41199 3.61851 0.963964 4.37518 0.63541C5.13185 0.306855 5.9383 0.142578 6.79453 0.142578H19.3095ZM9.15415 9.52131H6.01795V19.6766H9.15415V9.52131ZM7.60099 8.71486C8.01915 8.71486 8.38255 8.56552 8.69119 8.26683C8.99983 7.96815 9.15415 7.59977 9.15415 7.16169C9.15415 6.72362 8.99983 6.35524 8.69119 6.05656C8.38255 5.75787 8.01915 5.60853 7.60099 5.60853C7.16291 5.60853 6.78956 5.75787 6.48091 6.05656C6.17227 6.35524 6.01795 6.72362 6.01795 7.16169C6.01795 7.59977 6.17227 7.96815 6.48091 8.26683C6.78956 8.56552 7.16291 8.71486 7.60099 8.71486ZM20.0861 13.7925C20.0861 13.0757 19.8869 12.3738 19.4887 11.6868C19.0904 10.9998 18.5727 10.4771 17.9355 10.1187C17.3581 9.80009 16.686 9.63083 15.9194 9.61092C15.1528 9.59101 14.4608 9.72044 13.8435 9.99921V9.52131H10.7073V19.6766H13.8435V13.464L15.1279 12.8367C15.2872 12.7571 15.5062 12.7172 15.785 12.7172C16.0638 12.7172 16.2728 12.767 16.4122 12.8666C16.5317 12.9263 16.6512 13.0558 16.7706 13.2549C16.8901 13.454 16.9499 13.6332 16.9499 13.7925V19.6766H20.0861V13.7925Z" fill="#3B3D3D"/>
</svg>
