<svg width="250" height="41" viewBox="0 0 250 41" fill="none" xmlns="http://www.w3.org/2000/svg">
<g clip-path="url(#clip0_1047_1662)">
<path d="M0 5.22336V40.0252H8.36592V25.948H18.8372V19.3512H8.36592V12.0171H22.3591V5.22336H0Z" fill="#3B3D3D"/>
<mask id="mask0_1047_1662" style="mask-type:luminance" maskUnits="userSpaceOnUse" x="0" y="0" width="250" height="41">
<path d="M250 0H0V40.4192H250V0Z" fill="white"/>
</mask>
<g mask="url(#mask0_1047_1662)">
<path d="M50.7845 12.3661V40.0252H42.4186V36.2596C41.5687 37.481 40.4188 38.466 38.9689 39.209C37.519 39.952 35.9136 40.3235 34.1526 40.3235C32.0639 40.3235 30.2197 39.8507 28.6254 38.9107C27.0255 37.9707 25.7867 36.603 24.909 34.8187C24.0258 33.0344 23.5869 30.9349 23.5869 28.5259V12.3661H31.9028V27.3889C31.9028 29.2407 32.375 30.676 33.3194 31.7004C34.2637 32.7248 35.5359 33.237 37.1357 33.237C38.7356 33.237 40.0521 32.7248 41.002 31.7004C41.9464 30.676 42.4186 29.2407 42.4186 27.3889V12.3661H50.7845Z" fill="#3B3D3D"/>
<path d="M78.1539 15.2142C80.0649 17.3136 81.0148 20.1955 81.0148 23.8654V40.0252H72.6988V25.008C72.6988 23.1562 72.2267 21.7209 71.2823 20.6965C70.3379 19.672 69.0658 19.1598 67.466 19.1598C65.8661 19.1598 64.594 19.672 63.6497 20.6965C62.7053 21.7209 62.2331 23.1562 62.2331 25.008V40.0252H53.8672V12.3661H62.2331V16.0359C63.083 14.8145 64.2218 13.8464 65.6606 13.1372C67.0938 12.428 68.7103 12.0734 70.5046 12.0734C73.6988 12.0734 76.2541 13.1203 78.1595 15.2198" fill="#3B3D3D"/>
<path d="M100.953 21.1861C99.7916 19.9647 98.3862 19.3512 96.7197 19.3512C95.0531 19.3512 93.6422 19.9535 92.4867 21.158C91.3257 22.3625 90.748 24.023 90.748 26.1393C90.748 28.2557 91.3257 29.933 92.4867 31.1713C93.6422 32.4096 95.0531 33.0288 96.7197 33.0288C98.3862 33.0288 99.7916 32.4153 100.953 31.1938C102.108 29.9724 102.691 28.3007 102.691 26.1844C102.691 24.068 102.114 22.4019 100.953 21.1805M83.8319 18.6533C84.8929 16.5031 86.3372 14.8539 88.1593 13.6944C89.9869 12.5349 92.0256 11.9608 94.2754 11.9608C96.0697 11.9608 97.7085 12.3436 99.1917 13.1034C100.675 13.8633 101.841 14.8877 102.691 16.1767V3.3434H111.057V40.0252H102.691V36.057C101.908 37.3797 100.792 38.4379 99.3416 39.2315C97.8918 40.0252 96.203 40.4192 94.2754 40.4192C92.0256 40.4192 89.9869 39.8338 88.1593 38.6574C86.3317 37.4867 84.8874 35.815 83.8319 33.6479C82.7709 31.4809 82.2432 28.9818 82.2432 26.1393C82.2432 23.2969 82.7709 20.8034 83.8319 18.6533Z" fill="#3B3D3D"/>
</g>
<path d="M136.543 5.22336V12.0171H122.555V19.3512H133.021V25.948H122.555V40.0252H114.189V5.22336H136.543Z" fill="#3B3D3D"/>
<mask id="mask1_1047_1662" style="mask-type:luminance" maskUnits="userSpaceOnUse" x="0" y="0" width="250" height="41">
<path d="M250 0H0V40.4192H250V0Z" fill="white"/>
</mask>
<g mask="url(#mask1_1047_1662)">
<path d="M139.655 8.2966C138.694 7.39039 138.216 6.26467 138.216 4.93068C138.216 3.5967 138.694 2.42031 139.655 1.51411C140.616 0.607896 141.854 0.151978 143.371 0.151978C144.887 0.151978 146.076 0.607896 147.037 1.51411C147.998 2.42031 148.476 3.56293 148.476 4.93068C148.476 6.29844 147.998 7.39039 147.037 8.2966C146.076 9.20281 144.854 9.65873 143.371 9.65873C141.888 9.65873 140.616 9.20281 139.655 8.2966Z" fill="#FECF07"/>
<path d="M139.655 8.2966C138.694 7.39039 138.216 6.26467 138.216 4.93068C138.216 3.5967 138.694 2.42031 139.655 1.51411C140.616 0.607896 141.854 0.151978 143.371 0.151978C144.887 0.151978 146.076 0.607896 147.037 1.51411C147.998 2.42031 148.476 3.56293 148.476 4.93068C148.476 6.29844 147.998 7.39039 147.037 8.2966C146.076 9.20281 144.854 9.65873 143.371 9.65873C141.888 9.65873 140.616 9.20281 139.655 8.2966Z" stroke="#3B3D3D" stroke-width="0.54" stroke-miterlimit="10"/>
</g>
<path d="M146.382 12.3661H138.016V40.0252H146.382V12.3661Z" fill="#3B3D3D"/>
<mask id="mask2_1047_1662" style="mask-type:luminance" maskUnits="userSpaceOnUse" x="0" y="0" width="250" height="41">
<path d="M250 0H0V40.4192H250V0Z" fill="white"/>
</mask>
<g mask="url(#mask2_1047_1662)">
<path d="M173.801 15.2142C175.712 17.3136 176.662 20.1955 176.662 23.8654V40.0252H168.346V25.008C168.346 23.1562 167.874 21.7209 166.93 20.6965C165.985 19.672 164.713 19.1598 163.113 19.1598C161.514 19.1598 160.241 19.672 159.297 20.6965C158.353 21.7209 157.881 23.1562 157.881 25.008V40.0252H149.515V12.3661H157.881V16.0359C158.73 14.8145 159.869 13.8464 161.308 13.1372C162.741 12.428 164.358 12.0734 166.152 12.0734C169.346 12.0734 171.902 13.1203 173.807 15.2198" fill="#3B3D3D"/>
<path d="M196.599 21.1861C195.438 19.9647 194.033 19.3512 192.366 19.3512C190.7 19.3512 189.289 19.9535 188.133 21.158C186.972 22.3625 186.394 24.023 186.394 26.1393C186.394 28.2557 186.972 29.933 188.133 31.1713C189.289 32.4096 190.7 33.0288 192.366 33.0288C194.033 33.0288 195.438 32.4153 196.599 31.1938C197.755 29.9724 198.338 28.3007 198.338 26.1844C198.338 24.068 197.76 22.4019 196.599 21.1805M179.478 18.6533C180.539 16.5031 181.984 14.8539 183.806 13.6944C185.633 12.5349 187.672 11.9608 189.922 11.9608C191.716 11.9608 193.355 12.3436 194.838 13.1034C196.321 13.8633 197.488 14.8877 198.338 16.1767V3.3434H206.704V40.0252H198.338V36.057C197.555 37.3797 196.438 38.4379 194.988 39.2315C193.538 40.0252 191.85 40.4192 189.922 40.4192C187.672 40.4192 185.633 39.8338 183.806 38.6574C181.978 37.4867 180.534 35.815 179.478 33.6479C178.417 31.4809 177.89 28.9818 177.89 26.1393C177.89 23.2969 178.417 20.8034 179.478 18.6533Z" fill="#3B3D3D"/>
<path d="M221.869 13.3792C223.336 12.5012 224.969 12.0678 226.763 12.0678V21.0398H224.463C222.375 21.0398 220.808 21.4957 219.769 22.4019C218.725 23.3138 218.203 24.9067 218.203 27.1863V40.0252H209.837V12.3661H218.203V16.9759C219.181 15.4562 220.403 14.2573 221.875 13.3849" fill="#3B3D3D"/>
<path d="M232.585 39.1809C230.724 38.3535 229.258 37.2221 228.18 35.7868C227.102 34.3515 226.502 32.7361 226.369 30.9518H234.635C234.735 31.9087 235.174 32.6854 235.957 33.2821C236.74 33.8787 237.701 34.177 238.846 34.177C239.89 34.177 240.696 33.9688 241.268 33.5579C241.84 33.147 242.123 32.6066 242.123 31.9481C242.123 31.1544 241.718 30.5691 240.901 30.1863C240.085 29.8092 238.762 29.3871 236.94 28.9199C234.985 28.4583 233.352 27.9686 232.046 27.4564C230.741 26.9442 229.619 26.1337 228.669 25.0249C227.725 23.916 227.252 22.4244 227.252 20.5389C227.252 18.9516 227.686 17.505 228.547 16.1992C229.413 14.8933 230.68 13.8633 232.363 13.1034C234.041 12.3436 236.04 11.9608 238.357 11.9608C241.779 11.9608 244.479 12.822 246.456 14.5387C248.428 16.2555 249.562 18.5407 249.856 21.3775H242.123C241.99 20.4207 241.579 19.6608 240.873 19.0979C240.173 18.5351 239.251 18.2536 238.107 18.2536C237.129 18.2536 236.379 18.445 235.857 18.8221C235.335 19.2049 235.074 19.7227 235.074 20.3813C235.074 21.1749 235.491 21.7715 236.324 22.1655C237.157 22.5595 238.451 22.9592 240.212 23.3532C242.234 23.8823 243.884 24.4057 245.156 24.9123C246.428 25.4245 247.545 26.2519 248.506 27.3889C249.467 28.5315 249.967 30.0569 250 31.9762C250 33.5973 249.55 35.0438 248.656 36.3159C247.762 37.588 246.473 38.5899 244.79 39.316C243.112 40.042 241.162 40.4079 238.946 40.4079C236.563 40.4079 234.446 39.997 232.585 39.1696" fill="#3B3D3D"/>
</g>
</g>
<defs>
<clipPath id="clip0_1047_1662">
<rect width="250" height="40.4192" fill="white"/>
</clipPath>
</defs>
</svg>
