<svg width="30" height="24" viewBox="0 0 30 24" fill="none" xmlns="http://www.w3.org/2000/svg">
<path d="M19.4005 12C17.3876 12 15.7628 10.66 15.7628 9V5H6.06245C4.72864 5 3.63735 5.9 3.63735 7V18C3.63735 19.1 4.72864 20 6.06245 20H21.8256C23.1594 20 24.2506 19.1 24.2506 18V12H19.4005ZM16.9754 9C16.9754 10.1 18.0667 11 19.4005 11H23.7535L16.9754 5.41V9ZM6.06245 4H16.9754L25.4632 11V18C25.4632 19.66 23.8384 21 21.8256 21H6.06245C4.04962 21 2.4248 19.66 2.4248 18V7C2.4248 5.34 4.04962 4 6.06245 4ZM6.06245 8H13.3377V9H6.06245V8ZM6.06245 12H13.3377V13H6.06245V12ZM6.06245 16H21.8256V17H6.06245V16Z" fill="black"/>
</svg>
