<svg width="68" height="68" viewBox="0 0 68 68" fill="none" xmlns="http://www.w3.org/2000/svg">
<path fill-rule="evenodd" clip-rule="evenodd" d="M50.2763 21.2806C50.6088 20.6157 50.1253 19.8334 49.3819 19.8334H42.4999L36.8333 31.1667V47.1667C36.8333 47.719 37.281 48.1667 37.8333 48.1667H52.8333C53.3855 48.1667 53.8333 47.719 53.8333 47.1667V32.1667C53.8333 31.6145 53.3855 31.1667 52.8333 31.1667H45.3333L50.2763 21.2806ZM27.6096 21.2806C27.9421 20.6157 27.4586 19.8334 26.7152 19.8334H19.8333L14.1666 31.1667V47.1667C14.1666 47.719 14.6143 48.1667 15.1666 48.1667L30.1666 48.1667C30.7189 48.1667 31.1666 47.719 31.1666 47.1667L31.1666 32.1667C31.1666 31.6145 30.7189 31.1667 30.1666 31.1667H22.6666L27.6096 21.2806Z" fill="black" fill-opacity="0.7"/>
<mask id="mask0_646_2267" style="mask-type:luminance" maskUnits="userSpaceOnUse" x="14" y="19" width="40" height="30">
<path fill-rule="evenodd" clip-rule="evenodd" d="M50.2763 21.2806C50.6088 20.6157 50.1253 19.8334 49.3819 19.8334H42.4999L36.8333 31.1667V47.1667C36.8333 47.719 37.281 48.1667 37.8333 48.1667H52.8333C53.3855 48.1667 53.8333 47.719 53.8333 47.1667V32.1667C53.8333 31.6145 53.3855 31.1667 52.8333 31.1667H45.3333L50.2763 21.2806ZM27.6096 21.2806C27.9421 20.6157 27.4586 19.8334 26.7152 19.8334H19.8333L14.1666 31.1667V47.1667C14.1666 47.719 14.6143 48.1667 15.1666 48.1667L30.1666 48.1667C30.7189 48.1667 31.1666 47.719 31.1666 47.1667L31.1666 32.1667C31.1666 31.6145 30.7189 31.1667 30.1666 31.1667H22.6666L27.6096 21.2806Z" fill="white"/>
</mask>
<g mask="url(#mask0_646_2267)">
<rect width="68" height="68" fill="#38A6BF"/>
</g>
</svg>
