<svg width="24" height="24" viewBox="0 0 24 24" fill="none" xmlns="http://www.w3.org/2000/svg">
<path fill-rule="evenodd" clip-rule="evenodd" d="M12.7053 4.70532C12.3158 4.31578 11.6842 4.31578 11.2947 4.70532C10.9054 5.0946 10.9051 5.72568 11.2941 6.11531L16.17 11H5C4.44771 11 4 11.4477 4 12C4 12.5523 4.44772 13 5 13H16.17L11.2941 17.8847C10.9051 18.2743 10.9054 18.9054 11.2947 19.2947C11.6842 19.6842 12.3158 19.6842 12.7053 19.2947L20 12L12.7053 4.70532Z" fill="black" fill-opacity="0.7"/>
<mask id="mask0_646_2254" style="mask-type:luminance" maskUnits="userSpaceOnUse" x="4" y="4" width="16" height="16">
<path fill-rule="evenodd" clip-rule="evenodd" d="M12.7053 4.70532C12.3158 4.31578 11.6842 4.31578 11.2947 4.70532C10.9054 5.0946 10.9051 5.72568 11.2941 6.11531L16.17 11H5C4.44771 11 4 11.4477 4 12C4 12.5523 4.44772 13 5 13H16.17L11.2941 17.8847C10.9051 18.2743 10.9054 18.9054 11.2947 19.2947C11.6842 19.6842 12.3158 19.6842 12.7053 19.2947L20 12L12.7053 4.70532Z" fill="white"/>
</mask>
<g mask="url(#mask0_646_2254)">
<rect width="24" height="24" fill="#424B5A"/>
</g>
</svg>
