<svg width="25" height="19" viewBox="0 0 25 19" fill="none" xmlns="http://www.w3.org/2000/svg">
<path d="M15.7855 18.4324C15.5287 18.4324 15.2719 18.3378 15.0691 18.1351C14.6772 17.7431 14.6772 17.0943 15.0691 16.7024L22.557 9.2145L15.0691 1.72667C14.6772 1.33471 14.6772 0.685937 15.0691 0.293973C15.4611 -0.097991 16.1099 -0.097991 16.5018 0.293973L24.706 8.49816C25.098 8.89012 25.098 9.53889 24.706 9.93085L16.5018 18.1351C16.2991 18.3378 16.0423 18.4324 15.7855 18.4324Z" fill="white"/>
<path d="M23.7611 10.2281H1.0137C0.459544 10.2281 0 9.76854 0 9.21438C0 8.66023 0.459544 8.20068 1.0137 8.20068H23.7611C24.3153 8.20068 24.7748 8.66023 24.7748 9.21438C24.7748 9.76854 24.3153 10.2281 23.7611 10.2281Z" fill="white"/>
</svg>
