<svg width="40" height="41" viewBox="0 0 40 41" fill="none" xmlns="http://www.w3.org/2000/svg">
<path fill-rule="evenodd" clip-rule="evenodd" d="M30.5567 11.3712L30.4953 11.3302C29.2257 10.1221 27.7309 9.54877 26.0109 9.63068L25.9494 9.50781L25.9904 9.48734C27.5466 9.13923 28.4681 8.77065 28.7548 8.36112C28.8367 8.03349 28.7343 7.8492 28.3862 7.80824C27.6081 7.91063 26.8709 8.07444 26.2361 8.34064C27.0552 7.80824 27.3623 7.43966 27.178 7.25537C26.3794 7.27585 25.4989 7.68538 24.598 8.50445C24.9256 7.9311 25.0689 7.60348 24.987 7.56252C24.5365 7.8492 24.1679 8.17683 23.8403 8.52493C23.1441 9.30305 22.5912 10.0197 22.1612 10.675L22.1407 10.7159C21.0555 12.4974 20.2773 14.2789 19.8268 16.1013L19.663 16.2447L19.6221 16.2651C18.9668 15.4461 18.1682 14.7499 17.2263 14.197C16.1205 13.4598 14.81 12.7841 13.2947 12.1084C11.6566 11.2483 9.97747 10.5521 8.29836 9.99926C8.27788 11.9036 9.21982 13.3984 11.0423 14.5041V14.5246C10.4075 14.5246 9.7727 14.627 9.15839 14.8113C9.28125 16.5723 10.5303 17.7804 12.8852 18.4357L12.8647 18.4766C11.9432 18.4152 11.1856 18.7428 10.5918 19.4186C11.3699 20.9338 12.7418 21.6505 14.7281 21.6096C14.339 21.8143 14.0319 22.0191 13.8271 22.2648C13.4585 22.6539 13.3357 23.1044 13.4585 23.6163C13.8886 24.3944 14.6462 24.7425 15.7724 24.6811L15.8339 24.763L15.8134 24.804C13.8681 26.8107 11.5132 27.7117 8.76933 27.5274L8.72838 27.5478C7.04927 27.5274 5.24731 26.7288 3.302 25.1316C5.24731 27.9369 7.84787 29.9641 11.0627 31.2541C14.7281 32.4623 18.4139 32.5646 22.0793 31.5203H22.1407C25.7037 30.4965 28.7138 28.3669 31.212 25.1725C32.3587 23.5139 33.0754 21.9167 33.3621 20.381C35.2255 20.4424 36.5565 19.91 37.396 18.7633L37.3755 18.7224C36.7408 18.9476 35.5326 18.8862 33.7511 18.5176V18.3128C35.7169 18.0876 36.8841 17.4528 37.2527 16.4085C35.8807 16.9409 34.5292 16.9614 33.1983 16.4494C32.9525 14.6065 32.072 12.907 30.5567 11.3712Z" fill="#3B3D3D"/>
<mask id="mask0_703_2192" style="mask-type:luminance" maskUnits="userSpaceOnUse" x="3" y="7" width="35" height="26">
<path fill-rule="evenodd" clip-rule="evenodd" d="M30.5567 11.3712L30.4953 11.3302C29.2257 10.1221 27.7309 9.54877 26.0109 9.63068L25.9494 9.50781L25.9904 9.48734C27.5466 9.13923 28.4681 8.77065 28.7548 8.36112C28.8367 8.03349 28.7343 7.8492 28.3862 7.80824C27.6081 7.91063 26.8709 8.07444 26.2361 8.34064C27.0552 7.80824 27.3623 7.43966 27.178 7.25537C26.3794 7.27585 25.4989 7.68538 24.598 8.50445C24.9256 7.9311 25.0689 7.60348 24.987 7.56252C24.5365 7.8492 24.1679 8.17683 23.8403 8.52493C23.1441 9.30305 22.5912 10.0197 22.1612 10.675L22.1407 10.7159C21.0555 12.4974 20.2773 14.2789 19.8268 16.1013L19.663 16.2447L19.6221 16.2651C18.9668 15.4461 18.1682 14.7499 17.2263 14.197C16.1205 13.4598 14.81 12.7841 13.2947 12.1084C11.6566 11.2483 9.97747 10.5521 8.29836 9.99926C8.27788 11.9036 9.21982 13.3984 11.0423 14.5041V14.5246C10.4075 14.5246 9.7727 14.627 9.15839 14.8113C9.28125 16.5723 10.5303 17.7804 12.8852 18.4357L12.8647 18.4766C11.9432 18.4152 11.1856 18.7428 10.5918 19.4186C11.3699 20.9338 12.7418 21.6505 14.7281 21.6096C14.339 21.8143 14.0319 22.0191 13.8271 22.2648C13.4585 22.6539 13.3357 23.1044 13.4585 23.6163C13.8886 24.3944 14.6462 24.7425 15.7724 24.6811L15.8339 24.763L15.8134 24.804C13.8681 26.8107 11.5132 27.7117 8.76933 27.5274L8.72838 27.5478C7.04927 27.5274 5.24731 26.7288 3.302 25.1316C5.24731 27.9369 7.84787 29.9641 11.0627 31.2541C14.7281 32.4623 18.4139 32.5646 22.0793 31.5203H22.1407C25.7037 30.4965 28.7138 28.3669 31.212 25.1725C32.3587 23.5139 33.0754 21.9167 33.3621 20.381C35.2255 20.4424 36.5565 19.91 37.396 18.7633L37.3755 18.7224C36.7408 18.9476 35.5326 18.8862 33.7511 18.5176V18.3128C35.7169 18.0876 36.8841 17.4528 37.2527 16.4085C35.8807 16.9409 34.5292 16.9614 33.1983 16.4494C32.9525 14.6065 32.072 12.907 30.5567 11.3712Z" fill="white"/>
</mask>
<g mask="url(#mask0_703_2192)">
<rect y="0.651367" width="39.625" height="39.6248" fill="#424B5A"/>
</g>
</svg>
