<svg width="22" height="22" viewBox="0 0 22 22" fill="none" xmlns="http://www.w3.org/2000/svg">
<path d="M11.154 9.72961L7.08868 4.04126H4.92041L9.9563 11.0872L10.5902 11.9735L14.9006 18.0096H17.0689L11.7852 10.616L11.154 9.72961Z" fill="black"/>
<path d="M20.1598 0H1.84021C0.823853 0 0 0.823853 0 1.84021V20.1598C0 21.1761 0.823853 22 1.84021 22H20.1598C21.1761 22 22 21.1761 22 20.1598V1.84021C22 0.823853 21.1761 0 20.1598 0ZM14.2354 19L9.8728 12.787L4.41144 19H3L9.24689 11.8953L3 3H7.76465L11.8948 8.88196L17.0696 3H18.481L12.524 9.77563L19 19H14.2354Z" fill="black"/>
</svg>
